<?xml version="1.0" encoding="utf-8"?>
<!-- Generator: Adobe Illustrator 26.0.2, SVG Export Plug-In . SVG Version: 6.00 Build 0)  -->
<svg version="1.1" id="Layer_1" xmlns="http://www.w3.org/2000/svg" xmlns:xlink="http://www.w3.org/1999/xlink" x="0px" y="0px"
	 width="456.9px" height="114.5px" viewBox="0 0 456.9 114.5" style="enable-background:new 0 0 456.9 114.5;" xml:space="preserve"
	>
<style type="text/css">
	.st0{fill:url(#SVGID_1_);}
	.st1{fill:#1F98EA;}
	.st2{fill:#FFFFFF;}
	.st3{fill:url(#SVGID_00000121963674341547099140000004261456023010128784_);}
	.st4{fill:url(#SVGID_00000008116223544713068180000000525948402389676930_);}
	.st5{fill:url(#SVGID_00000047747852229948686970000007490025553588316298_);}
	.st6{fill:url(#SVGID_00000157286914937151542450000016498618039369235350_);}
	.st7{fill:url(#SVGID_00000024697912855876540760000004078830246534249121_);}
	.st8{fill:url(#SVGID_00000085227044470294236670000005968912743980463491_);}
	.st9{fill:#687074;}
</style>
<g>
	<g>
		<linearGradient id="SVGID_1_" gradientUnits="userSpaceOnUse" x1="0.3501" y1="57.4124" x2="146.915" y2="57.4124">
			<stop  offset="0" style="stop-color:#8BC814"/>
			<stop  offset="1" style="stop-color:#9BD727"/>
		</linearGradient>
		<polyline class="st0" points="0.4,87.3 8.3,87.3 31.9,73.5 10.7,87.3 14.9,87.3 31.9,77.2 16.4,87.3 21.6,87.3 30.2,81.7 
			23.1,87.3 28.3,87.3 31.8,84.7 29,87.3 47.6,87.3 146.9,27.5 137,27.5 115.3,40.1 134.8,27.5 130.1,27.5 115.2,36.8 128.7,27.5 
			123.6,27.5 115.4,32.6 122.3,27.5 117.2,27.5 113.9,29.7 116.6,27.5 98.2,27.5 0.4,87.3 		"/>
		<path class="st1" d="M0,0c0,0,7.4,3.5,24.2,3.7l99.6,0.1l23.1,22.8l-99.3-0.4C47.6,26.1,13,28.3,0,0z"/>
		<path class="st1" d="M146.9,114.5c0,0-7.4-3.5-24.2-3.7l-99.6-0.1L0,88.1l99.3,0.4C99.3,88.4,133.9,86.2,146.9,114.5z"/>
		<g>
			<path class="st2" d="M91.4,97.5c1.3,0,2.4,0.5,3.3,1.4c0.9,0.9,1.4,2,1.4,3.3c0,1.3-0.5,2.4-1.4,3.3c-0.9,0.9-2,1.4-3.3,1.4
				c-1.3,0-2.4-0.5-3.3-1.4c-0.9-0.9-1.4-2-1.4-3.3c0-1.3,0.5-2.4,1.4-3.3C89,97.9,90.1,97.5,91.4,97.5z"/>
			<path class="st2" d="M108.8,97.5c1.3,0,2.4,0.5,3.3,1.4c0.9,0.9,1.4,2,1.4,3.3c0,1.3-0.5,2.4-1.4,3.3c-0.9,0.9-2,1.4-3.3,1.4
				c-1.3,0-2.4-0.5-3.3-1.4c-0.9-0.9-1.4-2-1.4-3.3c0-1.3,0.5-2.4,1.4-3.3C106.4,97.9,107.5,97.5,108.8,97.5z"/>
			<path class="st2" d="M126.2,97.5c1.3,0,2.4,0.5,3.3,1.4c0.9,0.9,1.4,2,1.4,3.3c0,1.3-0.5,2.4-1.4,3.3c-0.9,0.9-2,1.4-3.3,1.4
				c-1.3,0-2.4-0.5-3.3-1.4c-0.9-0.9-1.4-2-1.4-3.3c0-1.3,0.5-2.4,1.4-3.3C123.7,97.9,124.9,97.5,126.2,97.5z"/>
		</g>
		<g>
			
				<linearGradient id="SVGID_00000054250759200800601460000004266735795507483295_" gradientUnits="userSpaceOnUse" x1="167.8157" y1="76.5941" x2="167.8157" y2="29.8303">
				<stop  offset="0" style="stop-color:#8BC814"/>
				<stop  offset="1" style="stop-color:#9BD727"/>
			</linearGradient>
			<path style="fill:url(#SVGID_00000054250759200800601460000004266735795507483295_);" d="M165.8,30h25.5l0.2,0.2
				c0,4.3-2.1,7.3-6.3,9c-0.9,0.3-2.1,0.4-3.5,0.4h-14.2c-4.9,0-8.9,2.3-12,7c-0.6,1.2-0.9,1.9-0.9,2.2h29.7l0.2,0.2
				c0,4.3-2.1,7.3-6.3,9c-0.9,0.3-2.1,0.4-3.5,0.4h-20c1.3,3.1,3.4,5.5,6.4,7.1c2,1,3.9,1.5,5.7,1.5h14.9c4.6,0,7.7,2.1,9.3,6.3
				c0.3,1,0.4,2,0.4,3.1l-0.2,0.2h-23.4c-9.3,0-16.5-4.4-21.4-13.2c-1.6-3.5-2.3-6.9-2.3-10.2c0-5.2,1.7-10.1,5-14.7
				c4-4.3,7.6-6.8,11-7.6C162.1,30.4,164,30,165.8,30z"/>
			
				<linearGradient id="SVGID_00000047044894317765919870000000033873392552068738_" gradientUnits="userSpaceOnUse" x1="199.1064" y1="53.3787" x2="246.2381" y2="53.3787">
				<stop  offset="0" style="stop-color:#8BC814"/>
				<stop  offset="1" style="stop-color:#9BD727"/>
			</linearGradient>
			<path style="fill:url(#SVGID_00000047044894317765919870000000033873392552068738_);" d="M212.5,30h33.3c0.1,0,0.2,0.1,0.2,0.3
				c0,4.2-2.1,7.1-6.3,8.8c-1,0.3-2,0.4-3.1,0.4h-23.1c-2.4,0-3.9,1.2-4.6,3.5l-0.1,0.8c0,2.8,1.6,4.3,4.7,4.7h18.1
				c6.7,0,11.2,3.1,13.7,9.4c0.6,1.6,0.9,3.5,0.9,5.7c0,4.1-2.1,7.7-6.2,10.9c-2.5,1.5-4.9,2.2-7.2,2.2h-33.3
				c-0.1,0-0.2-0.1-0.2-0.4c0-4.2,2.1-7.1,6.3-8.8c1-0.3,2-0.5,3.1-0.5h23.1c2.4,0,3.9-1.2,4.6-3.5l0.1-0.8c0-2.8-1.6-4.3-4.7-4.6
				H215c-7.4,0-12.4-3.1-15-9.2c-0.6-1.9-0.9-3.9-0.9-5.9c0-4.1,2.1-7.7,6.2-10.9C207.8,30.7,210.2,30,212.5,30z"/>
			
				<linearGradient id="SVGID_00000029757751250040103230000004338098814403550359_" gradientUnits="userSpaceOnUse" x1="253.615" y1="53.3174" x2="298.7846" y2="53.3174">
				<stop  offset="0" style="stop-color:#8BC814"/>
				<stop  offset="1" style="stop-color:#9BD727"/>
			</linearGradient>
			<path style="fill:url(#SVGID_00000029757751250040103230000004338098814403550359_);" d="M298.6,29.9c0.1,0,0.2,0.1,0.2,0.3
				c0,3.9-1.9,6.6-5.8,8.2c-0.9,0.3-1.9,0.4-2.9,0.4h-9.2v37.7l-0.2,0.2h-8.5l-0.2-0.2V38.8h-9.6c-4,0-6.8-1.9-8.3-5.8
				c-0.3-0.9-0.4-1.9-0.4-3l0.1-0.1H298.6z"/>
			
				<linearGradient id="SVGID_00000144316059846688792860000001663057719564444606_" gradientUnits="userSpaceOnUse" x1="305.8758" y1="53.3787" x2="349.7782" y2="53.3787">
				<stop  offset="0" style="stop-color:#8BC814"/>
				<stop  offset="1" style="stop-color:#9BD727"/>
			</linearGradient>
			<path style="fill:url(#SVGID_00000144316059846688792860000001663057719564444606_);" d="M327.8,30c4.9,0,9.5,1.6,13.8,4.7
				c4,3.7,6.4,7.2,7.1,10.3c0.7,2,1.1,3.7,1.1,5.4v26.2l-0.2,0.2c-4,0-6.8-2-8.4-5.9c-0.3-0.9-0.4-2-0.4-3.3v-5.3H315v5.3
				c0,4.3-2,7.2-5.9,8.7c-0.9,0.3-1.9,0.4-3,0.4l-0.2-0.2V52.3c0-8.8,4.1-15.5,12.3-20.1C321.5,30.7,324.7,30,327.8,30z M315,50.8
				v2.4h25.8v-1.8c0-4-1.8-7.5-5.3-10.4c-2.4-1.7-4.8-2.5-7.1-2.5h-1.2c-3.9,0-7.3,1.9-10.1,5.8C315.6,46.5,315,48.6,315,50.8z"/>
			
				<linearGradient id="SVGID_00000152946337561900204320000015969646545646509758_" gradientUnits="userSpaceOnUse" x1="357.1965" y1="53.3378" x2="403.1428" y2="53.3378">
				<stop  offset="0" style="stop-color:#8BC814"/>
				<stop  offset="1" style="stop-color:#9BD727"/>
			</linearGradient>
			<path style="fill:url(#SVGID_00000152946337561900204320000015969646545646509758_);" d="M357.4,29.9h32.1c2.4,0,5.1,1.2,8,3.6
				c3,3,4.5,6.5,4.5,10.3c0,4.7-2.1,8.7-6.4,11.7c-2.6,1.6-5.1,2.3-7.4,2.3h-1.6c11.1,11.1,16.6,16.7,16.6,16.8v0.2
				c0,1-1.8,1.7-5.4,1.9c-3.2,0-5.4-0.9-6.6-2.8l-24.8-24.7v19.3c0,2.2-1.3,4.2-4,6.2c-1.4,0.9-3.1,1.3-5,1.3l-0.1-0.1V30.2
				L357.4,29.9z M366.3,39.1v9.6h22.2c2.6,0,4.2-1.4,4.9-4.2l0.1-0.7c-0.5-3.2-2.2-4.8-5-4.8H366.3z"/>
			
				<linearGradient id="SVGID_00000109739939710029339880000005346883605893528729_" gradientUnits="userSpaceOnUse" x1="409.5795" y1="53.3787" x2="456.9156" y2="53.3787">
				<stop  offset="0" style="stop-color:#8BC814"/>
				<stop  offset="1" style="stop-color:#9BD727"/>
			</linearGradient>
			<path style="fill:url(#SVGID_00000109739939710029339880000005346883605893528729_);" d="M409.8,30h23.4
				c9.3,0,16.5,4.4,21.4,13.1c1.6,3.5,2.3,6.9,2.3,10.3c0,5.2-1.7,10.1-5,14.7c-4,4.3-7.6,6.8-11,7.6c-2.1,0.8-4,1.1-5.7,1.1h-25.5
				l-0.2-0.2v-1l0.1-0.1l-0.1-0.1v-45L409.8,30z M418,38.6v29.7h15.4c4.6,0,8.6-2,11.9-6c1.9-2.8,2.9-5.5,2.9-8.2v-1.4
				c0-4.5-2.2-8.4-6.6-11.7c-2.5-1.6-4.9-2.4-7.4-2.4H418z"/>
		</g>
	</g>
	<g>
		<path class="st9" d="M178.4,93.1h-6.5v18.4h-4V93.1h-6.5v-3.3h17.1V93.1z"/>
		<path class="st9" d="M189.8,93v6h7.6v3.1h-7.6v6.1h9.6v3.2h-13.7V89.8h13.7V93H189.8z"/>
		<path class="st9" d="M221.9,106.4c0.2,0,0.4,0.1,0.6,0.3l1.6,1.7c-0.9,1.1-2,1.9-3.2,2.5s-2.8,0.9-4.6,0.9c-1.6,0-3.1-0.3-4.3-0.8
			s-2.4-1.3-3.3-2.3c-0.9-1-1.6-2.2-2.1-3.5c-0.5-1.4-0.7-2.8-0.7-4.5c0-1.6,0.3-3.1,0.8-4.5c0.5-1.4,1.3-2.5,2.2-3.5
			c0.9-1,2.1-1.7,3.4-2.3c1.3-0.5,2.8-0.8,4.4-0.8c1.6,0,3,0.3,4.2,0.8c1.2,0.5,2.3,1.2,3.1,2l-1.4,1.9c-0.1,0.1-0.2,0.2-0.3,0.3
			c-0.1,0.1-0.3,0.1-0.5,0.1c-0.2,0-0.3,0-0.5-0.1c-0.2-0.1-0.3-0.2-0.5-0.3c-0.2-0.1-0.4-0.3-0.7-0.4c-0.2-0.2-0.5-0.3-0.9-0.4
			s-0.7-0.2-1.1-0.3c-0.4-0.1-0.9-0.1-1.5-0.1c-1,0-1.9,0.2-2.7,0.5s-1.5,0.8-2.1,1.5c-0.6,0.7-1,1.5-1.4,2.4
			c-0.3,0.9-0.5,2-0.5,3.2c0,1.2,0.2,2.3,0.5,3.3c0.3,1,0.8,1.8,1.4,2.4c0.6,0.7,1.3,1.1,2.1,1.5c0.8,0.3,1.7,0.5,2.6,0.5
			c0.5,0,1,0,1.5-0.1c0.4-0.1,0.9-0.2,1.2-0.3s0.7-0.3,1.1-0.5s0.7-0.5,1-0.8c0.1-0.1,0.2-0.2,0.3-0.2S221.8,106.4,221.9,106.4z"/>
		<path class="st9" d="M249.7,89.8v21.7h-4V102h-10.2v9.5h-4V89.8h4v9.3h10.2v-9.3H249.7z"/>
		<path class="st9" d="M277.3,89.8v21.7h-2.1c-0.3,0-0.6-0.1-0.8-0.2c-0.2-0.1-0.4-0.3-0.6-0.5l-11.3-14.5c0.1,0.7,0.1,1.3,0.1,1.8
			v13.3H259V89.8h2.1c0.2,0,0.3,0,0.4,0c0.1,0,0.2,0,0.3,0.1c0.1,0,0.2,0.1,0.3,0.2s0.2,0.2,0.3,0.3l11.4,14.5c0-0.3-0.1-0.7-0.1-1
			c0-0.3,0-0.7,0-0.9V89.8H277.3z"/>
		<path class="st9" d="M307.3,100.7c0,1.6-0.3,3.1-0.8,4.4c-0.5,1.4-1.3,2.5-2.2,3.5s-2.1,1.8-3.5,2.3c-1.4,0.6-2.9,0.8-4.5,0.8
			c-1.6,0-3.1-0.3-4.5-0.8c-1.3-0.6-2.5-1.3-3.5-2.3s-1.7-2.2-2.2-3.5c-0.5-1.4-0.8-2.8-0.8-4.4s0.3-3.1,0.8-4.4
			c0.5-1.4,1.3-2.5,2.2-3.5c1-1,2.1-1.8,3.5-2.3c1.4-0.6,2.8-0.8,4.5-0.8c1.1,0,2.1,0.1,3.1,0.4c1,0.3,1.9,0.6,2.7,1.1
			c0.8,0.5,1.5,1,2.2,1.7c0.6,0.7,1.2,1.4,1.6,2.2s0.8,1.7,1,2.7C307.2,98.6,307.3,99.6,307.3,100.7z M303.2,100.7
			c0-1.2-0.2-2.3-0.5-3.2c-0.3-0.9-0.8-1.7-1.4-2.4s-1.3-1.2-2.2-1.5c-0.8-0.4-1.8-0.5-2.9-0.5c-1.1,0-2,0.2-2.9,0.5
			c-0.8,0.3-1.6,0.9-2.2,1.5s-1.1,1.5-1.4,2.4c-0.3,0.9-0.5,2-0.5,3.2c0,1.2,0.2,2.3,0.5,3.2c0.3,0.9,0.8,1.7,1.4,2.4
			c0.6,0.7,1.3,1.2,2.2,1.5c0.8,0.4,1.8,0.5,2.9,0.5c1.1,0,2-0.2,2.9-0.5c0.8-0.3,1.6-0.9,2.2-1.5c0.6-0.7,1-1.5,1.4-2.4
			C303,102.9,303.2,101.8,303.2,100.7z"/>
		<path class="st9" d="M328.1,108.2v3.3h-12.7V89.8h4v18.4H328.1z"/>
		<path class="st9" d="M355.4,100.7c0,1.6-0.3,3.1-0.8,4.4c-0.5,1.4-1.3,2.5-2.2,3.5s-2.1,1.8-3.5,2.3c-1.4,0.6-2.9,0.8-4.5,0.8
			c-1.6,0-3.1-0.3-4.5-0.8c-1.3-0.6-2.5-1.3-3.5-2.3s-1.7-2.2-2.2-3.5c-0.5-1.4-0.8-2.8-0.8-4.4s0.3-3.1,0.8-4.4
			c0.5-1.4,1.3-2.5,2.2-3.5c1-1,2.1-1.8,3.5-2.3c1.4-0.6,2.8-0.8,4.5-0.8c1.1,0,2.1,0.1,3.1,0.4c1,0.3,1.9,0.6,2.7,1.1
			c0.8,0.5,1.5,1,2.2,1.7c0.6,0.7,1.2,1.4,1.6,2.2s0.8,1.7,1,2.7C355.2,98.6,355.4,99.6,355.4,100.7z M351.2,100.7
			c0-1.2-0.2-2.3-0.5-3.2c-0.3-0.9-0.8-1.7-1.4-2.4s-1.3-1.2-2.2-1.5c-0.8-0.4-1.8-0.5-2.9-0.5c-1.1,0-2,0.2-2.9,0.5
			c-0.8,0.3-1.6,0.9-2.2,1.5s-1.1,1.5-1.4,2.4c-0.3,0.9-0.5,2-0.5,3.2c0,1.2,0.2,2.3,0.5,3.2c0.3,0.9,0.8,1.7,1.4,2.4
			c0.6,0.7,1.3,1.2,2.2,1.5c0.8,0.4,1.8,0.5,2.9,0.5c1.1,0,2-0.2,2.9-0.5c0.8-0.3,1.6-0.9,2.2-1.5c0.6-0.7,1-1.5,1.4-2.4
			C351.1,102.9,351.2,101.8,351.2,100.7z"/>
		<path class="st9" d="M381.3,100.6v8.8c-1.1,0.8-2.3,1.4-3.5,1.8s-2.6,0.6-4,0.6c-1.8,0-3.4-0.3-4.8-0.8c-1.4-0.5-2.7-1.3-3.7-2.3
			c-1-1-1.8-2.2-2.3-3.5c-0.5-1.4-0.8-2.8-0.8-4.5c0-1.6,0.3-3.1,0.8-4.5c0.5-1.4,1.3-2.5,2.3-3.5c1-1,2.2-1.7,3.5-2.3
			c1.4-0.5,3-0.8,4.7-0.8c0.9,0,1.7,0.1,2.5,0.2c0.8,0.1,1.5,0.3,2.1,0.6c0.7,0.2,1.3,0.5,1.8,0.9c0.5,0.4,1,0.7,1.5,1.2l-1.2,1.8
			c-0.2,0.3-0.4,0.5-0.7,0.5s-0.6,0-0.9-0.2c-0.3-0.2-0.7-0.4-1-0.6c-0.3-0.2-0.7-0.4-1.1-0.5c-0.4-0.1-0.9-0.3-1.4-0.3
			c-0.5-0.1-1.1-0.1-1.7-0.1c-1.1,0-2,0.2-2.9,0.5s-1.6,0.9-2.2,1.5c-0.6,0.7-1.1,1.5-1.4,2.4c-0.3,0.9-0.5,2-0.5,3.2
			c0,1.2,0.2,2.3,0.5,3.3c0.4,1,0.9,1.8,1.5,2.5c0.6,0.7,1.4,1.2,2.3,1.5c0.9,0.4,1.9,0.5,3,0.5c0.8,0,1.5-0.1,2.1-0.3
			s1.2-0.4,1.8-0.7v-3.9h-2.7c-0.3,0-0.5-0.1-0.6-0.2c-0.1-0.1-0.2-0.3-0.2-0.5v-2.3H381.3z"/>
		<path class="st9" d="M393.7,111.5h-4V89.8h4V111.5z"/>
		<path class="st9" d="M407.1,93v6h7.6v3.1h-7.6v6.1h9.6v3.2h-13.7V89.8h13.7V93H407.1z"/>
		<path class="st9" d="M436.4,93.8c-0.1,0.2-0.2,0.4-0.4,0.5c-0.1,0.1-0.3,0.1-0.5,0.1c-0.2,0-0.4-0.1-0.7-0.2
			c-0.2-0.2-0.5-0.3-0.9-0.5c-0.3-0.2-0.7-0.4-1.2-0.5c-0.5-0.2-1-0.2-1.6-0.2c-0.6,0-1,0.1-1.5,0.2s-0.8,0.3-1.1,0.6
			s-0.5,0.5-0.6,0.9s-0.2,0.7-0.2,1.1c0,0.5,0.1,0.9,0.4,1.3s0.7,0.6,1.1,0.9c0.5,0.2,1,0.5,1.6,0.6c0.6,0.2,1.2,0.4,1.8,0.6
			c0.6,0.2,1.2,0.5,1.8,0.8c0.6,0.3,1.1,0.6,1.6,1.1s0.8,1,1.1,1.6s0.4,1.4,0.4,2.3c0,1-0.2,1.9-0.5,2.8c-0.3,0.9-0.8,1.6-1.5,2.2
			c-0.6,0.6-1.4,1.1-2.4,1.5c-0.9,0.4-2,0.5-3.2,0.5c-0.7,0-1.4-0.1-2-0.2c-0.7-0.1-1.3-0.3-1.9-0.6s-1.2-0.5-1.7-0.9
			c-0.5-0.3-1-0.7-1.4-1.2l1.2-1.9c0.1-0.1,0.2-0.3,0.4-0.4s0.3-0.1,0.5-0.1c0.2,0,0.5,0.1,0.8,0.3s0.6,0.4,1,0.7
			c0.4,0.2,0.9,0.5,1.4,0.7s1.2,0.3,1.9,0.3c1.1,0,2-0.3,2.7-0.8c0.6-0.5,0.9-1.3,0.9-2.3c0-0.6-0.1-1-0.4-1.4s-0.7-0.7-1.1-0.9
			s-1-0.5-1.6-0.6c-0.6-0.2-1.2-0.4-1.8-0.6c-0.6-0.2-1.2-0.4-1.8-0.7c-0.6-0.3-1.1-0.6-1.6-1.1c-0.5-0.5-0.8-1-1.1-1.7
			c-0.3-0.7-0.4-1.5-0.4-2.5c0-0.8,0.2-1.6,0.5-2.3c0.3-0.8,0.8-1.4,1.4-2s1.3-1,2.2-1.4c0.9-0.3,1.9-0.5,3-0.5
			c1.3,0,2.5,0.2,3.5,0.6c1.1,0.4,2,1,2.8,1.7L436.4,93.8z"/>
	</g>
</g>
</svg>
